PathFileType	4	(X/Y/Z)	s06c0101.trc
DataRate	CameraRate	NumFrames	NumMarkers	Units	OrigDataRate	OrigDataStartFrame	OrigNumFrames
200	200	4	49	mm	200	1000	2000
Frame#	Time	racr			lacr			c7			jug			rlel			rdr			llel			ldr			s2			lic			ric			lasi			rasi			rpsi			lpsi			rgt			lgt			rth1			rth2			rth3			rth4			rlfc			rmfc			rsh1			rsh2			rsh3			rsh4			rlmal			rmmal			rcal			rtoe			rmt5			lth1			lth2			lth4			lth3			llfc			lmfc			llmal			lcal			lmt5			lsh1			lsh2			lsh3			lsh4			ltoe			SBIKE			LBIKE			RBIKE			
		X1	Y1	Z1	X2	Y2	Z2	X3	Y3	Z3	X4	Y4	Z4	X5	Y5	Z5	X6	Y6	Z6	X7	Y7	Z7	X8	Y8	Z8	X9	Y9	Z9	X10	Y10	Z10	X11	Y11	Z11	X12	Y12	Z12	X13	Y13	Z13	X14	Y14	Z14	X15	Y15	Z15	X16	Y16	Z16	X17	Y17	Z17	X18	Y18	Z18	X19	Y19	Z19	X20	Y20	Z20	X21	Y21	Z21	X22	Y22	Z22	X23	Y23	Z23	X24	Y24	Z24	X25	Y25	Z25	X26	Y26	Z26	X27	Y27	Z27	X28	Y28	Z28	X29	Y29	Z29	X30	Y30	Z30	X31	Y31	Z31	X32	Y32	Z32	X33	Y33	Z33	X34	Y34	Z34	X35	Y35	Z35	X36	Y36	Z36	X37	Y37	Z37	X38	Y38	Z38	X39	Y39	Z39	X40	Y40	Z40	X41	Y41	Z41	X42	Y42	Z42	X43	Y43	Z43	X44	Y44	Z44	X45	Y45	Z45	X46	Y46	Z46	X47	Y47	Z47	X48	Y48	Z48	X49	Y49	Z49	
1000	5.0000	506.617153	1254.351318	-84.919889	528.430145	1237.482059	-375.110237	519.768476	1317.973499	-232.916026	490.139932	1156.456749	-235.859376	503.352844	1024.491456	42.595258	705.151857	933.102237	-50.858639	490.747484	995.511977	-487.172968	702.209680	921.721033	-419.626620	-40.572834	1171.105347	-248.195427	125.389273	1120.267273	-405.712996	88.901383	1154.453662	-84.585769	139.705980	1070.281853	-370.699952	115.158311	1104.084487	-111.891808	-6.650820	1215.010143	-223.220723	-7.749346	1203.362425	-282.979940	78.449174	1106.789107	-46.343367	86.574454	1039.755572	-438.589921	183.139154	1038.813941	-39.468425	270.667429	1016.968530	-45.910138	333.738691	957.648857	-43.219416	283.980314	1044.337255	-67.783036	404.511528	878.082461	-67.515687	395.752522	848.908259	-180.638881	358.898015	758.782646	-40.690253	339.721524	674.896261	-59.467736	284.794022	607.966832	-58.942921	361.185887	668.356511	-92.918460	237.824812	532.430297	-64.034040	273.399557	533.031009	-156.282056	171.618620	503.498363	-111.927440	443.288001	453.111073	-105.180333	343.153088	446.467913	-37.079447	127.257892	917.604308	-446.926030	189.732136	856.833624	-440.767245	220.899101	875.621255	-432.647314	213.355064	771.210459	-430.779790	243.942322	661.907383	-404.168700	242.618873	654.649994	-286.164744	68.007914	339.959737	-375.682049	4.016933	358.555195	-328.684557	118.218849	199.941696	-406.568796	203.604401	561.863498	-419.214080	181.707705	481.414342	-394.149104	124.545236	415.287644	-395.515510	204.772287	475.059213	-362.481663	187.375796	144.912138	-350.967889	-204.723857	868.646442	-220.802700	-50.366865	79.832718	-420.198782	-50.314580	79.693297	-22.790983	
1001	5.0050	506.306241	1254.981315	-85.050020	528.040921	1236.240834	-375.935034	519.331247	1317.493263	-234.093467	489.868425	1155.912504	-235.558912	502.804347	1024.220945	41.653868	704.503332	933.107632	-51.097531	490.422943	994.853157	-488.902792	701.614369	921.584185	-420.409598	-41.098780	1169.410263	-248.690982	125.083473	1118.910402	-406.330416	88.911523	1151.964665	-84.795838	139.241255	1069.222239	-371.139450	115.571874	1102.081967	-112.605214	-7.284631	1212.793317	-222.517736	-7.761254	1202.162150	-282.517093	77.858200	1102.551811	-46.624927	87.213755	1039.789577	-439.559569	182.333323	1032.918763	-39.624903	269.489469	1009.191293	-45.646933	331.326903	948.201226	-44.242762	283.611445	1036.546354	-67.395567	400.539971	867.058154	-67.281816	392.582699	837.904185	-178.761152	356.996645	747.700434	-40.919417	339.740025	663.835643	-59.750994	286.402854	595.279470	-59.606019	361.137644	657.410966	-93.076128	241.419426	520.121448	-64.487990	276.999523	521.286014	-156.934867	175.820951	489.343096	-112.529694	448.865415	446.754098	-105.160820	348.731568	437.658964	-37.210699	130.451515	919.807605	-446.744788	194.056057	860.314267	-439.756504	224.675934	879.670308	-430.972894	219.407972	775.129663	-430.460779	249.569403	665.132084	-404.736206	248.178178	658.126890	-287.314783	64.116818	348.199447	-376.176666	0.291051	368.232573	-329.048292	111.654069	207.484954	-406.718818	205.788581	566.038198	-420.265219	181.633611	486.247288	-395.063778	122.529536	421.796168	-396.067524	204.678145	479.250992	-363.513302	179.801662	151.406807	-350.909593	-204.760409	868.463620	-220.987076	-50.373683	79.698351	-420.197880	-50.367985	79.649005	-22.802977	
1002	5.0100	505.926698	1255.673297	-85.276867	527.425974	1235.369427	-376.706315	518.914079	1317.072270	-235.196553	489.220470	1155.513704	-235.276161	502.006031	1023.934481	40.757342	703.812108	933.074954	-51.393905	490.147150	994.448105	-490.751867	701.220221	921.326501	-421.079503	-41.961694	1167.316279	-248.560605	125.058823	1117.484683	-406.853766	88.961805	1149.058859	-84.906018	138.855455	1068.051333	-371.587189	116.450023	1100.015496	-113.399606	-7.930056	1210.359569	-221.885670	-8.400140	1200.214592	-282.027679	76.829924	1097.517239	-47.697909	87.881293	1040.068931	-440.483405	181.519158	1026.037720	-40.171859	268.300255	1001.281184	-44.924766	326.860946	940.109681	-41.136468	283.257593	1028.652254	-66.765801	396.370582	856.129175	-66.831297	388.951087	826.819341	-177.767626	354.946414	736.407548	-41.234990	339.750626	652.073374	-60.209897	288.090402	582.304849	-60.342365	361.132385	646.236762	-93.482952	244.989760	507.981500	-65.005012	280.635104	509.693854	-157.628679	179.698824	476.038151	-112.919169	453.980833	439.593206	-105.119963	354.240945	427.696922	-37.958196	133.649069	922.352248	-446.636443	198.343918	864.235865	-439.059760	228.348967	883.965133	-429.376561	225.425919	779.454440	-430.271707	254.714644	668.469449	-405.622094	253.676568	661.264845	-288.842565	60.435749	356.878941	-376.771746	-3.015520	378.279624	-329.513538	105.641117	215.531202	-406.929176	208.049593	570.228573	-421.746802	181.649966	491.469870	-396.382584	120.703257	428.608588	-396.898670	204.794374	483.825772	-365.059057	172.826325	158.354616	-350.817509	-204.750248	868.394991	-221.230665	-50.435781	79.604465	-420.202162	-50.441096	79.595618	-22.843887	
1003	5.0150	505.512622	1256.327381	-85.556156	526.705133	1234.875398	-377.354332	518.434971	1316.784794	-236.267079	488.501970	1155.260712	-235.152791	501.052075	1023.584943	39.923188	703.199846	933.016772	-51.677726	489.956519	994.304433	-492.709973	700.497927	921.229918	-421.952447	-42.822805	1165.008601	-247.943003	125.171724	1116.008905	-407.236916	88.953202	1145.825028	-84.841813	138.544371	1066.734178	-371.906367	116.796908	1097.257605	-113.807118	-8.565699	1207.768845	-221.429391	-9.314667	1197.846472	-281.529339	76.523883	1092.474153	-47.473903	88.675671	1040.516436	-441.307231	180.629782	1019.673025	-40.049322	267.322388	992.910852	-44.439688	325.202762	930.061517	-42.695812	282.922475	1020.289006	-66.668460	391.994550	844.492674	-66.498567	384.957163	816.198062	-176.897334	352.741048	724.894828	-41.401970	339.708897	640.201190	-60.650185	289.765616	569.160857	-61.078481	361.171488	635.188513	-94.021121	248.490291	496.042342	-65.891230	284.060047	498.237815	-158.191791	183.742434	463.037067	-113.458931	458.788412	431.742728	-105.109596	359.132552	418.094153	-38.077472	136.816731	925.001842	-445.889752	202.588707	868.345433	-438.276510	232.025934	888.560762	-427.760323	231.356276	783.919346	-430.153979	259.969430	672.098339	-407.629321	259.134720	663.922349	-290.497937	57.303865	365.934973	-377.353816	-5.803628	388.656939	-330.093388	100.215439	223.935467	-407.117565	210.499016	574.527048	-423.404217	181.937877	496.635474	-397.630877	119.213832	435.692189	-397.844274	205.036688	488.379739	-366.522399	166.416806	165.794829	-350.789918	-204.735123	868.359780	-221.477092	-50.497801	79.551951	-420.254485	-50.491606	79.542659	-22.908897	
